<svg id="login-designer-sprite" style="position: absolute; width: 0; height: 0; overflow: hidden;" xmlns="http://www.w3.org/2000/svg">

	<symbol id="icon-login-designer" width="726px" height="166px" viewBox="0 0 726 166" version="1.1" xmlns="http://www.w3.org/2000/svg" xmlns:xlink="http://www.w3.org/1999/xlink">
	    <g id="Symbols" stroke="none" stroke-width="1" fill="none" fill-rule="evenodd">
	        <g id="login-designer">
	            <g transform="translate(0.832031, 0.519531)" fill="currentColor" fill-rule="nonzero" id="Shape">
	                <path d="M117.309345,25.3641827 C119.060376,25.3641827 120.479868,23.9446913 120.479868,22.1936599 L120.479868,3.17052284 C120.479868,1.41949142 119.060376,0 117.309345,0 L98.2862079,0 C96.5351765,0 95.1156851,1.41949142 95.1156851,3.17052284 L95.1156851,9.51156851 L25.3641827,9.51156851 L25.3641827,3.17052284 C25.3641827,1.41949142 23.9446913,0 22.1936599,0 L3.17052284,0 C1.41949142,0 0,1.41949142 0,3.17052284 L0,22.1936599 C0,23.9446913 1.41949142,25.3641827 3.17052284,25.3641827 L9.51156851,25.3641827 L9.51156851,139.503005 L3.17052284,139.503005 C1.41949142,139.503005 0,140.922496 0,142.673528 L0,161.696665 C0,163.447696 1.41949142,164.867187 3.17052284,164.867187 L22.1936599,164.867187 C23.9446913,164.867187 25.3641827,163.447696 25.3641827,161.696665 L25.3641827,155.355619 L95.1156851,155.355619 L95.1156851,161.696665 C95.1156851,163.447696 96.5351765,164.867187 98.2862079,164.867187 L117.309345,164.867187 C119.060376,164.867187 120.479868,163.447696 120.479868,161.696665 L120.479868,142.673528 C120.479868,140.922496 119.060376,139.503005 117.309345,139.503005 L110.968299,139.503005 L110.968299,25.3641827 L117.309345,25.3641827 Z M104.627254,139.503005 L98.2862079,139.503005 C96.5351765,139.503005 95.1156851,140.922496 95.1156851,142.673528 L95.1156851,149.014573 L25.3641827,149.014573 L25.3641827,142.673528 C25.3641827,140.922496 23.9446913,139.503005 22.1936599,139.503005 L15.8526142,139.503005 L15.8526142,25.3641827 L22.1936599,25.3641827 C23.9446913,25.3641827 25.3641827,23.9446913 25.3641827,22.1936599 L25.3641827,15.8526142 L95.1156851,15.8526142 L95.1156851,22.1936599 C95.1156851,23.9446913 96.5351765,25.3641827 98.2862079,25.3641827 L104.627254,25.3641827 L104.627254,139.503005 Z M80.2142278,31.0711238 L12.6820913,12.6820913 L12.6820913,152.185096 L80.2142278,133.796064 C81.5263256,133.284286 82.4018359,132.033557 82.4335938,130.625541 L82.4335938,34.2416466 C82.4018359,32.8336307 81.5263256,31.5829017 80.2142278,31.0711238 Z M63.4104567,88.7746394 C59.9083939,88.7746394 57.0694111,85.9356566 57.0694111,82.4335938 C57.0694111,78.9315309 59.9083939,76.0925481 63.4104567,76.0925481 C66.9125196,76.0925481 69.7515024,78.9315309 69.7515024,82.4335938 C69.7515024,85.9356566 66.9125196,88.7746394 63.4104567,88.7746394 Z"></path>
	            </g>
	            <path d="M159.127344,56.078125 L171.427344,56.078125 L171.427344,108.378125 L195.927344,108.378125 L195.927344,118.578125 L159.127344,118.578125 L159.127344,56.078125 Z M221.627344,119.578125 C208.427344,119.578125 199.827344,110.978125 199.827344,95.678125 C199.827344,80.878125 208.927344,71.778125 221.927344,71.778125 C235.227344,71.778125 243.627344,80.178125 243.627344,95.078125 C243.627344,110.378125 234.827344,119.578125 221.627344,119.578125 Z M221.927344,110.778125 C227.627344,110.778125 231.227344,106.478125 231.227344,95.378125 C231.227344,84.978125 227.327344,80.578125 221.627344,80.578125 C215.827344,80.578125 212.227344,84.978125 212.227344,95.378125 C212.227344,106.478125 216.027344,110.778125 221.927344,110.778125 Z M258.327344,116.978125 C254.827344,115.578125 252.827344,113.078125 252.827344,109.578125 C252.827344,106.178125 255.027344,103.478125 260.027344,101.978125 C252.927344,100.178125 247.427344,95.078125 247.427344,87.478125 C247.427344,77.378125 255.027344,71.878125 267.527344,71.878125 C275.327344,71.878125 277.327344,73.578125 281.327344,73.578125 C281.727344,73.578125 283.127344,73.578125 293.827344,72.478125 L293.827344,80.578125 L285.127344,80.078125 C286.327344,81.878125 287.227344,84.178125 287.227344,86.878125 C287.227344,96.378125 279.427344,101.778125 267.927344,102.178125 C264.127344,102.378125 262.527344,103.678125 262.527344,105.878125 C262.527344,107.978125 263.927344,109.078125 267.127344,109.378125 L277.327344,110.378125 C288.427344,111.478125 292.527344,115.778125 292.527344,123.878125 C292.527344,132.778125 283.527344,139.378125 267.627344,139.378125 C252.927344,139.378125 246.727344,134.478125 246.727344,127.578125 C246.727344,122.578125 250.427344,118.378125 258.327344,117.578125 L258.327344,116.978125 Z M259.227344,87.078125 C259.227344,91.978125 261.627344,95.478125 267.427344,95.478125 C271.927344,95.478125 275.227344,92.978125 275.227344,86.978125 C275.227344,82.978125 272.827344,79.178125 267.227344,79.178125 C262.027344,79.178125 259.227344,82.378125 259.227344,87.078125 Z M263.627344,119.078125 C259.927344,120.278125 257.327344,122.378125 257.327344,125.178125 C257.327344,128.678125 260.227344,131.678125 268.027344,131.678125 C276.127344,131.678125 281.227344,128.778125 281.227344,124.778125 C281.227344,121.978125 279.127344,120.678125 274.927344,120.178125 L263.627344,119.078125 Z M304.527344,64.578125 C300.527344,64.578125 297.627344,61.778125 297.627344,57.678125 C297.627344,53.578125 300.627344,50.678125 304.627344,50.678125 C308.627344,50.678125 311.627344,53.578125 311.627344,57.678125 C311.627344,61.778125 308.527344,64.578125 304.527344,64.578125 Z M298.527344,72.478125 L310.627344,72.478125 L310.627344,118.578125 L298.527344,118.578125 L298.527344,72.478125 Z M321.927344,72.478125 L333.427344,72.478125 L333.427344,82.178125 L334.227344,82.178125 C335.027344,77.278125 339.527344,71.978125 348.027344,71.978125 C353.727344,71.978125 357.427344,73.978125 359.527344,77.478125 C361.027344,80.178125 361.527344,83.978125 361.527344,88.378125 L361.527344,118.578125 L349.827344,118.578125 L349.827344,90.578125 C349.827344,88.478125 349.627344,85.878125 348.727344,84.478125 C347.727344,82.878125 345.927344,81.978125 342.927344,81.978125 C337.427344,81.978125 333.627344,86.378125 333.627344,94.378125 L333.627344,118.578125 L321.927344,118.578125 L321.927344,72.478125 Z M387.927344,56.078125 L408.627344,56.078125 C416.727344,56.078125 423.027344,57.178125 427.527344,59.878125 C435.427344,64.478125 439.127344,73.378125 439.127344,86.078125 C439.127344,108.678125 428.227344,118.578125 405.427344,118.578125 L387.927344,118.578125 L387.927344,56.078125 Z M404.927344,108.978125 C419.927344,108.978125 425.827344,102.678125 425.827344,86.378125 C425.827344,77.378125 423.827344,71.278125 418.727344,68.078125 C415.827344,66.178125 411.127344,65.578125 406.127344,65.578125 L400.327344,65.578125 L400.327344,108.978125 L404.927344,108.978125 Z M467.727344,110.678125 C472.927344,110.678125 476.427344,108.278125 477.427344,103.878125 L485.327344,107.078125 C483.927344,114.778125 477.427344,119.478125 466.727344,119.478125 C452.127344,119.478125 444.727344,110.578125 444.727344,96.178125 C444.727344,81.978125 452.327344,71.778125 467.127344,71.778125 C479.827344,71.778125 485.527344,79.978125 485.527344,90.078125 C485.527344,92.378125 485.227344,95.678125 484.627344,97.578125 L456.427344,97.578125 C456.427344,105.078125 459.427344,110.678125 467.727344,110.678125 Z M466.427344,80.078125 C460.927344,80.078125 457.127344,83.278125 456.627344,90.078125 L474.427344,90.078125 C474.527344,89.578125 474.627344,88.878125 474.627344,88.278125 C474.627344,83.578125 471.927344,80.078125 466.427344,80.078125 Z M497.627344,104.678125 C497.827344,109.178125 501.527344,111.178125 506.127344,111.178125 C510.127344,111.178125 513.727344,109.878125 513.727344,106.378125 C513.727344,102.778125 509.827344,102.178125 503.927344,100.078125 C495.927344,97.378125 490.327344,94.378125 490.327344,85.878125 C490.327344,76.878125 497.627344,71.978125 508.327344,71.978125 C518.527344,71.978125 523.827344,76.578125 524.027344,83.078125 L515.927344,85.778125 C515.527344,81.678125 512.727344,80.278125 508.327344,80.278125 C504.227344,80.278125 501.427344,81.678125 501.427344,84.678125 C501.427344,88.378125 505.527344,89.478125 510.827344,91.278125 C519.227344,94.178125 524.927344,96.478125 524.927344,104.478125 C524.927344,114.478125 517.827344,119.478125 506.227344,119.478125 C495.727344,119.478125 489.527344,115.278125 489.327344,107.178125 L497.627344,104.678125 Z M538.127344,64.578125 C534.127344,64.578125 531.227344,61.778125 531.227344,57.678125 C531.227344,53.578125 534.227344,50.678125 538.227344,50.678125 C542.227344,50.678125 545.227344,53.578125 545.227344,57.678125 C545.227344,61.778125 542.127344,64.578125 538.127344,64.578125 Z M532.127344,72.478125 L544.227344,72.478125 L544.227344,118.578125 L532.127344,118.578125 L532.127344,72.478125 Z M562.227344,116.978125 C558.727344,115.578125 556.727344,113.078125 556.727344,109.578125 C556.727344,106.178125 558.927344,103.478125 563.927344,101.978125 C556.827344,100.178125 551.327344,95.078125 551.327344,87.478125 C551.327344,77.378125 558.927344,71.878125 571.427344,71.878125 C579.227344,71.878125 581.227344,73.578125 585.227344,73.578125 C585.627344,73.578125 587.027344,73.578125 597.727344,72.478125 L597.727344,80.578125 L589.027344,80.078125 C590.227344,81.878125 591.127344,84.178125 591.127344,86.878125 C591.127344,96.378125 583.327344,101.778125 571.827344,102.178125 C568.027344,102.378125 566.427344,103.678125 566.427344,105.878125 C566.427344,107.978125 567.827344,109.078125 571.027344,109.378125 L581.227344,110.378125 C592.327344,111.478125 596.427344,115.778125 596.427344,123.878125 C596.427344,132.778125 587.427344,139.378125 571.527344,139.378125 C556.827344,139.378125 550.627344,134.478125 550.627344,127.578125 C550.627344,122.578125 554.327344,118.378125 562.227344,117.578125 L562.227344,116.978125 Z M563.127344,87.078125 C563.127344,91.978125 565.527344,95.478125 571.327344,95.478125 C575.827344,95.478125 579.127344,92.978125 579.127344,86.978125 C579.127344,82.978125 576.727344,79.178125 571.127344,79.178125 C565.927344,79.178125 563.127344,82.378125 563.127344,87.078125 Z M567.527344,119.078125 C563.827344,120.278125 561.227344,122.378125 561.227344,125.178125 C561.227344,128.678125 564.127344,131.678125 571.927344,131.678125 C580.027344,131.678125 585.127344,128.778125 585.127344,124.778125 C585.127344,121.978125 583.027344,120.678125 578.827344,120.178125 L567.527344,119.078125 Z M602.327344,72.478125 L613.827344,72.478125 L613.827344,82.178125 L614.627344,82.178125 C615.427344,77.278125 619.927344,71.978125 628.427344,71.978125 C634.127344,71.978125 637.827344,73.978125 639.927344,77.478125 C641.427344,80.178125 641.927344,83.978125 641.927344,88.378125 L641.927344,118.578125 L630.227344,118.578125 L630.227344,90.578125 C630.227344,88.478125 630.027344,85.878125 629.127344,84.478125 C628.127344,82.878125 626.327344,81.978125 623.327344,81.978125 C617.827344,81.978125 614.027344,86.378125 614.027344,94.378125 L614.027344,118.578125 L602.327344,118.578125 L602.327344,72.478125 Z M672.427344,110.678125 C677.627344,110.678125 681.127344,108.278125 682.127344,103.878125 L690.027344,107.078125 C688.627344,114.778125 682.127344,119.478125 671.427344,119.478125 C656.827344,119.478125 649.427344,110.578125 649.427344,96.178125 C649.427344,81.978125 657.027344,71.778125 671.827344,71.778125 C684.527344,71.778125 690.227344,79.978125 690.227344,90.078125 C690.227344,92.378125 689.927344,95.678125 689.327344,97.578125 L661.127344,97.578125 C661.127344,105.078125 664.127344,110.678125 672.427344,110.678125 Z M671.127344,80.078125 C665.627344,80.078125 661.827344,83.278125 661.327344,90.078125 L679.127344,90.078125 C679.227344,89.578125 679.327344,88.878125 679.327344,88.278125 C679.327344,83.578125 676.627344,80.078125 671.127344,80.078125 Z M698.227344,72.478125 L709.727344,72.478125 L709.727344,83.778125 L710.527344,83.778125 C711.727344,77.178125 715.327344,71.778125 721.927344,71.778125 C723.527344,71.778125 724.927344,72.078125 725.927344,72.678125 L724.127344,84.878125 C723.127344,84.478125 721.927344,84.278125 720.627344,84.278125 C712.527344,84.278125 709.927344,92.278125 709.927344,99.578125 L709.927344,118.578125 L698.227344,118.578125 L698.227344,72.478125 Z" id="Login-Designer" fill="currentColor"></path>
	            <path d="" id="Path-2" stroke="#979797"></path>
	        </g>
	    </g>
	</symbol>

	<symbol id="icon-login-designer-mark" xmlns="http://www.w3.org/2000/svg" data-name="Login Designer" viewBox="0 0 38 52" x="0px" y="0px"><path d="M370,414a1,1,0,0,0,1-1v-6a1,1,0,0,0-1-1h-6a1,1,0,0,0-1,1v2H341v-2a1,1,0,0,0-1-1h-6a1,1,0,0,0-1,1v6a1,1,0,0,0,1,1h2v36h-2a1,1,0,0,0-1,1v6a1,1,0,0,0,1,1h6a1,1,0,0,0,1-1v-2h22v2a1,1,0,0,0,1,1h6a1,1,0,0,0,1-1v-6a1,1,0,0,0-1-1h-2V414h2Zm-4,36h-2a1,1,0,0,0-1,1v2H341v-2a1,1,0,0,0-1-1h-2V414h2a1,1,0,0,0,1-1v-2h22v2a1,1,0,0,0,1,1h2v36Zm-7.7-34.2L337,410v44l21.3-5.8a1.1,1.1,0,0,0,.7-1V416.8A1.1,1.1,0,0,0,358.3,415.8ZM353,434a2,2,0,1,1,2-2A2,2,0,0,1,353,434Z" transform="translate(-333 -406)"></path></symbol>
</svg>