<svg id="login-designer-sprite" style="position: absolute; width: 0; height: 0; overflow: hidden;" xmlns="http://www.w3.org/2000/svg">
	<symbol id="icon-login-designer" viewBox="0 0 774 120" xmlns="http://www.w3.org/2000/svg"><g fill="currentColor" fill-rule="evenodd"><path d="m149.172358 98.453626v-73.6743164h17.790527v73.6743164zm48.540942-55.9350586c16.816406 0 26.455078 10.9716797 26.455078 26.6088867v3.2299805c0 17.0214844-9.638672 27.121582-26.455078 27.121582-16.970215 0-26.608887-10.1000976-26.608887-27.019043v-3.2299804c0-15.5859375 9.689942-26.7114258 26.608887-26.7114258zm-.051269 13.0737305c-6.459961 0-8.510743 6.4599609-8.510743 13.2788086v4.152832c0 6.4086914 1.896973 13.3300781 8.510743 13.3300781 6.5625 0 8.459472-6.8701172 8.459472-13.3300781v-4.152832c0-6.9213868-2.050781-13.2788086-8.459472-13.2788086zm55.052172 50.8081051c6.152344 0 9.331055-3.537597 9.331055-9.8437497v-7.6391601h-.820313c-1.948242 4.8706054-7.434082 8.6132812-15.329589 8.6132812-12.09961 0-19.995118-8.9208984-19.995118-26.1474609v-2.3583985c0-17.1240234 7.844239-26.0449218 19.995118-26.0449218 7.741699 0 13.381347 3.6401367 15.380859 9.0234375h.820312v-8.4594727h17.739258v54.6533203c0 15.8422847-15.021972 20.4565427-27.480468 20.4565427-17.380372 0-24.968262-8.049316-25.327149-17.226562h16.816406c.820313 3.28125 4.357911 4.973144 8.869629 4.973144zm.512696-49.7827145c-5.434571 0-8.920899 4.3066406-8.920899 12.6635742v3.0249023c0 8.4082032 3.486328 12.7148438 8.920899 12.7148438 5.280761 0 8.818359-4.3579102 8.818359-12.7148438v-3.0249023c0-8.3056641-3.588867-12.6635742-8.818359-12.6635742zm33.057543 41.8359375v-54.909668h17.790528v54.909668zm-.512695-68.8549805c0-5.1782226 4.255371-8.4594726 9.433594-8.4594726 5.178222 0 9.433594 3.28125 9.433594 8.4594726 0 5.2294922-4.255372 8.4594727-9.433594 8.4594727-5.178223 0-9.433594-3.2299805-9.433594-8.4594727zm24.75188 68.8549805v-54.909668h17.175293v8.7158203h.871582c1.486816-3.9990234 6.408691-9.5361328 15.842285-9.5361328 11.022949 0 18.303223 6.8188477 18.303223 20.2514649v35.4785156h-17.790528v-31.171875c0-7.6904297-4.35791-9.84375-8.254394-9.84375-4.819336 0-8.408203 3.5375976-8.408203 9.9975586v31.0180664zm90.673193-55.4736328c7.58789 0 13.330078 3.5375976 15.432129 8.9721679h.820312v-27.1728515h17.841797v73.6743164h-17.739258v-8.6645508h-.820312c-2.20459 5.5883789-7.895508 9.2285156-15.534668 9.2285156-12.509766 0-20.148926-9.4848633-20.148926-25.9423828v-4.3066406c0-16.3549805 7.741699-25.7885742 20.148926-25.7885742zm7.126465 13.6889648c-5.075684 0-8.869629 4.1015625-8.869629 12.6635742v3.3325196c0 8.6132812 3.793945 12.7148437 8.920898 12.7148437 5.383301 0 9.125977-4.2553711 9.125977-12.6635742v-3.3837891c0-8.305664-3.793946-12.6635742-9.177246-12.6635742zm57.410571 42.8100586c-15.637207 0-26.557618-8.8183594-26.557618-26.6601562v-4.050293c0-17.4829102 11.433106-26.25 25.891114-26.25 15.483398 0 25.634765 10.0488281 25.634765 26.4038086v5.6396484h-34.196777v1.9995117c0 6.3574219 4.152832 9.9975586 9.228516 9.9975586 4.614257 0 8.203125-2.2558593 8.66455-6.1523437h16.047364c-.615235 8.5620117-7.69043 19.0722656-24.711914 19.0722656zm-9.228516-34.8120117h17.226562c0-5.6396484-3.332519-9.6899414-8.510742-9.6899414-5.178222 0-8.71582 4.050293-8.71582 9.6899414zm36.287524-4.3066406c0-12.7148438 11.074219-17.8417969 23.583985-17.8417969 13.176269 0 22.353515 5.8447266 22.353515 17.0214844h-15.432129c-.410156-2.8198243-2.307129-5.6396485-7.177734-5.6396485-4.204102 0-6.511231 2.1533203-6.511231 4.8706055 0 4.8706055 8.510743 5.3320312 14.714356 6.4599609 9.997559 1.7944336 16.252441 5.9472657 16.252441 15.5859375 0 11.5356446-8.869629 18.6621094-24.865722 18.6621094-15.944825 0-24.09668-7.2802734-24.09668-17.0214844h17.226562c.307618 3.2299805 3.178711 5.5371094 7.69043 5.5371094 4.614258 0 6.921387-2.3071289 6.921387-4.8706055 0-4.4604492-7.023926-4.8706054-13.483887-6.2036132-9.484863-1.9995118-17.175293-6.2036133-17.175293-16.5600586zm51.617114 38.0932617v-54.909668h17.790528v54.909668zm-.512695-68.8549805c0-5.1782226 4.255371-8.4594726 9.433594-8.4594726 5.178222 0 9.433593 3.28125 9.433593 8.4594726 0 5.2294922-4.255371 8.4594727-9.433593 8.4594727-5.178223 0-9.433594-3.2299805-9.433594-8.4594727zm49.617602 76.8017575c6.152344 0 9.331055-3.537597 9.331055-9.8437497v-7.6391601h-.820312c-1.948243 4.8706054-7.434083 8.6132812-15.32959 8.6132812-12.09961 0-19.995118-8.9208984-19.995118-26.1474609v-2.3583985c0-17.1240234 7.844239-26.0449218 19.995118-26.0449218 7.741699 0 13.381347 3.6401367 15.380859 9.0234375h.820313v-8.4594727h17.739257v54.6533203c0 15.8422847-15.021972 20.4565427-27.480468 20.4565427-17.380371 0-24.968262-8.049316-25.327149-17.226562h16.816406c.820313 3.28125 4.357911 4.973144 8.869629 4.973144zm.512696-49.7827145c-5.434571 0-8.920899 4.3066406-8.920899 12.6635742v3.0249023c0 8.4082032 3.486328 12.7148438 8.920899 12.7148438 5.280761 0 8.818359-4.3579102 8.818359-12.7148438v-3.0249023c0-8.3056641-3.588867-12.6635742-8.818359-12.6635742zm32.544848 41.8359375v-54.909668h17.175293v8.7158203h.871582c1.486816-3.9990234 6.408691-9.5361328 15.842285-9.5361328 11.022949 0 18.303223 6.8188477 18.303223 20.2514649v35.4785156h-17.790527v-31.171875c0-7.6904297-4.357911-9.84375-8.254395-9.84375-4.819336 0-8.408203 3.5375976-8.408203 9.9975586v31.0180664zm81.968677 1.0253906c-15.637207 0-26.557618-8.8183594-26.557618-26.6601562v-4.050293c0-17.4829102 11.433106-26.25 25.891114-26.25 15.483398 0 25.634765 10.0488281 25.634765 26.4038086v5.6396484h-34.196777v1.9995117c0 6.3574219 4.152832 9.9975586 9.228516 9.9975586 4.614257 0 8.203125-2.2558593 8.66455-6.1523437h16.047364c-.615235 8.5620117-7.69043 19.0722656-24.711914 19.0722656zm-9.228516-34.8120117h17.226563c0-5.6396484-3.33252-9.6899414-8.510743-9.6899414-5.178222 0-8.71582 4.050293-8.71582 9.6899414zm37.82561 33.7866211v-54.909668h17.790528v8.3056641h.820312c.922852-3.6914063 5.024414-9.0747071 12.202148-9.0747071 2.563477 0 4.152832.1538086 5.229493.5126954v14.9707031c-1.1792-.4614258-3.742676-.7177735-6.306153-.7177735-8.254394 0-11.381836 4.7167969-11.381836 12.0483399v28.8647461z"/><path d="m31.5471855.99403997 56.6082732-.00966273c10.7070234-.00182763 14.5950373 1.11485582 18.5194843 3.21233024 3.924446 2.09747443 7.011282 5.17588901 9.123608 9.09871722 2.112325 3.9228282 3.245916 7.8140494 3.297669 18.5453019l.273623 56.7363731c.051753 10.7312525-1.044303 14.6228543-3.118788 18.5463973s-5.131624 7.003006-9.035833 9.101817c-3.904209 2.09881-7.7814456 3.216819-18.488469 3.218647l-56.6082732.009663c-10.7070234.001827-14.5950374-1.114856-18.5194838-3.21233-3.92444644-2.097475-7.01128252-5.17589-9.12360822-9.098718-2.11232569-3.922828-3.24591622-7.8140491-3.29766977-18.5453016l-.27362218-56.7363731c-.05175355-10.7312525 1.04430281-14.6228543 3.11878786-18.5463971 2.07448504-3.92354286 5.13162356-7.00300619 9.03583261-9.10181693 3.904209-2.09881073 7.7814458-3.21681967 18.4884692-3.2186473zm53.5897837 17.46559543h-49.4444444c-.1388889 0-.25.0555556-.3611111.0833334-.1666667 0-.3055556.0277777-.4444445.0833333-.1944444.0555555-.3333333.1388889-.5.25-.1111111.0555555-.2222222.1111111-.3055555.1944444-.1388889.1111111-.25.2777778-.3611111.4166667-.0833334.1111111-.1666667.2222222-.2222222.3611111-.0833334.1388889-.1111112.3055556-.1666667.4722222-.0277778.1111111-.0833333.2222223-.1111111.3333334 0 .0555555.0277778.0833333 0 .1388889 0 .0555555-.0277778.0833333-.0277778.1388888v79.1111114c0 .055555.0277778.083333.0277778.138889 0 .055555-.0277778.083333 0 .138889.0277778.138888.0833333.25.1111111.388888.0277778.138889.0555555.25.1111111.388889.0833333.166667.1944444.305556.3055556.444445.0833333.111111.1388888.194444.2222222.277778.1666666.138888.3333333.25.5.333333.0833333.055555.1666666.138889.2777778.166667.2777777.111111.6111111.194444.9166666.194444h49.4444445c1.3611111 0 2.4722222-1.111111 2.4722222-2.472222v-79.1111114c.0277778-1.3611111-1.0833333-2.4722222-2.4444445-2.4722222zm-7.4166666 74.4444445-39.5555556 4.3888889v-73.6111112l39.5555556 4.3888889z"/></g></symbol>
	<symbol id="icon-login-designer-mark" xmlns="http://www.w3.org/2000/svg" data-name="Login Designer" viewBox="0 0 38 52" x="0px" y="0px"><path d="M370,414a1,1,0,0,0,1-1v-6a1,1,0,0,0-1-1h-6a1,1,0,0,0-1,1v2H341v-2a1,1,0,0,0-1-1h-6a1,1,0,0,0-1,1v6a1,1,0,0,0,1,1h2v36h-2a1,1,0,0,0-1,1v6a1,1,0,0,0,1,1h6a1,1,0,0,0,1-1v-2h22v2a1,1,0,0,0,1,1h6a1,1,0,0,0,1-1v-6a1,1,0,0,0-1-1h-2V414h2Zm-4,36h-2a1,1,0,0,0-1,1v2H341v-2a1,1,0,0,0-1-1h-2V414h2a1,1,0,0,0,1-1v-2h22v2a1,1,0,0,0,1,1h2v36Zm-7.7-34.2L337,410v44l21.3-5.8a1.1,1.1,0,0,0,.7-1V416.8A1.1,1.1,0,0,0,358.3,415.8ZM353,434a2,2,0,1,1,2-2A2,2,0,0,1,353,434Z" transform="translate(-333 -406)"></path></symbol>
</svg>
